<?xml version="1.0" encoding="UTF-8"?>
<svg version="1.1" xmlns="http://www.w3.org/2000/svg" width="1190" height="266">
<path d="M0 0 C2.89168669 3.04747403 2.40800299 6.33267678 2.33673096 10.31095886 C2.33731506 11.15995758 2.33789917 12.0089563 2.33850098 12.88368225 C2.33571234 15.69229398 2.30458403 18.49984681 2.27325439 21.30827332 C2.26579477 23.25454122 2.26010052 25.20081663 2.25610352 27.14709473 C2.2408253 32.27158823 2.20152456 37.39562879 2.1572876 42.51994324 C2.1163821 47.74815239 2.09810259 52.97643467 2.07794189 58.20475769 C2.03503249 68.46472241 1.96675464 78.72435083 1.88262939 88.98405457 C7.91520854 88.89038452 13.94739279 88.78425961 19.97955322 88.66667175 C22.03092473 88.62842832 24.08236224 88.59356738 26.1338501 88.56217957 C29.08550577 88.51642855 32.03670893 88.45845035 34.98809814 88.39811707 C35.90286423 88.38656586 36.81763031 88.37501465 37.76011658 88.3631134 C44.0560413 88.23409418 44.0560413 88.23409418 49.88262939 85.98405457 C51.46849839 82.81231657 51.26129384 79.34891634 51.44512939 75.85905457 C51.50990479 74.72790222 51.50990479 74.72790222 51.57598877 73.57389832 C51.68211259 71.71083569 51.7828794 69.84746932 51.88262939 67.98405457 C50.85379639 67.99976501 49.82496338 68.01547546 48.76495361 68.03166199 C44.92958476 68.08616791 41.09424982 68.12047934 37.25860596 68.14884949 C35.60197177 68.16388922 33.94537709 68.18432633 32.28887939 68.21037292 C29.9007591 68.24696972 27.51316751 68.26382896 25.12481689 68.27702332 C24.39020233 68.29250717 23.65558777 68.30799103 22.89871216 68.32394409 C18.1542807 68.32547929 14.87080981 67.58326903 10.88262939 64.98405457 C9.75762939 62.04655457 9.75762939 62.04655457 9.88262939 58.98405457 C12.06695081 56.09762983 13.43566534 55.13304258 16.88262939 53.98405457 C19.54157047 53.89910729 22.17348317 53.86810661 24.83184814 53.88639832 C25.60446487 53.88781326 26.3770816 53.88922821 27.17311096 53.89068604 C29.63882329 53.8962799 32.10444455 53.90883124 34.57012939 53.92155457 C36.24265412 53.92657036 37.91518028 53.93113313 39.58770752 53.93522644 C43.68604986 53.94624732 47.78432419 53.96350772 51.88262939 53.98405457 C51.85983539 50.87825962 51.78255121 47.77614973 51.69512939 44.67155457 C51.68932861 43.79048035 51.68352783 42.90940613 51.67755127 42.00163269 C51.64854736 41.1540741 51.61954346 40.3065155 51.58966064 39.43327332 C51.56609497 38.26284485 51.56609497 38.26284485 51.54205322 37.06877136 C51.02560923 34.77423246 51.02560923 34.77423246 48.73638916 33.23136902 C45.44911066 31.79457324 43.09549039 31.60083075 39.51544189 31.57780457 C38.29985596 31.5558905 37.08427002 31.53397644 35.83184814 31.51139832 C34.56985596 31.50237488 33.30786377 31.49335144 32.00762939 31.48405457 C14.254912 31.35633717 14.254912 31.35633717 9.88262939 26.98405457 C9.57012939 24.10905457 9.57012939 24.10905457 9.88262939 20.98405457 C14.87201739 15.99466657 21.10940678 16.82225817 27.67755127 16.79850769 C28.73027222 16.79862854 28.73027222 16.79862854 29.80426025 16.79875183 C31.91327774 16.79658726 34.02175283 16.7784846 36.13067627 16.75944519 C48.86781902 16.70382901 61.68903798 17.74928768 71.71856689 26.60514832 C75.13956715 30.56994918 76.00502408 33.90236141 76.04376221 39.00285339 C76.05336975 40.02433975 76.06297729 41.04582611 76.07287598 42.0982666 C76.07925079 43.75296211 76.07925079 43.75296211 76.08575439 45.44108582 C76.09145447 46.57680527 76.09715454 47.71252472 76.10302734 48.88265991 C76.11247893 51.28762378 76.11901195 53.6926006 76.12286377 56.09757996 C76.1325634 59.77155745 76.16358366 63.44497416 76.19512939 67.11882019 C76.20166011 69.45540541 76.20691031 71.79199463 76.21075439 74.12858582 C76.2231012 75.22564346 76.235448 76.32270111 76.24816895 77.45300293 C76.2271835 84.66195953 75.53308847 89.26895015 70.32012939 94.60905457 C64.00733209 99.51373418 55.66853874 102.117188 47.74688721 102.09757996 C46.72613098 102.09750443 45.70537476 102.09742889 44.65368652 102.09735107 C43.55876892 102.09218979 42.46385132 102.0870285 41.33575439 102.08171082 C40.20941589 102.08029587 39.08307739 102.07888092 37.92260742 102.0774231 C34.32592104 102.07182656 30.72929696 102.05927466 27.13262939 102.04655457 C24.69382821 102.04153912 22.25502605 102.03697629 19.81622314 102.03288269 C13.83833457 102.02185826 7.86049254 102.00459596 1.88262939 101.98405457 C1.88262939 106.60405457 1.88262939 111.22405457 1.88262939 115.98405457 C3.01168701 115.96834412 4.14074463 115.95263367 5.30401611 115.93644714 C9.53457367 115.88172031 13.7651006 115.84755055 17.99591064 115.81925964 C19.81920655 115.80426968 21.64246699 115.78387072 23.46563721 115.75773621 C38.04751543 115.554101 49.85382272 116.11278721 61.32012939 126.10905457 C65.83247789 131.52387276 64.39466619 141.27787856 63.88262939 147.98405457 C60.76339525 166.97344621 46.58005948 181.79206093 31.61480713 192.75602722 C23.68193004 198.38857526 15.4453193 203.37024384 6.88262939 207.98405457 C27.00785235 216.08158123 47.33964809 222.93913656 68.24200439 228.77311707 C69.21162109 229.04414246 70.18123779 229.31516785 71.18023682 229.59440613 C72.96421794 230.08777733 74.75071532 230.57217975 76.5401001 231.045578 C84.02688222 233.09043276 84.02688222 233.09043276 86.88262939 235.98405457 C87.38262939 238.48405457 87.38262939 238.48405457 86.88262939 240.98405457 C82.71623752 245.00677776 78.36141238 245.28770469 72.84014893 245.22087097 C67.16747397 244.76664489 61.78634243 243.19233635 56.32012939 241.67155457 C55.36244156 241.41003601 55.36244156 241.41003601 54.38540649 241.14323425 C33.81374853 235.51922296 12.77178299 229.3695678 -6.5145874 220.18132019 C-11.92614734 217.68639296 -14.85837915 217.84089415 -20.38079834 219.77799988 C-23.18197152 220.81275077 -25.96149667 221.89596551 -28.74237061 222.98405457 C-91.32475815 246.90156546 -91.32475815 246.90156546 -111.11737061 244.98405457 C-113.59787989 243.81973388 -115.21163013 242.88979505 -117.11737061 240.98405457 C-117.36737061 238.60905457 -117.36737061 238.60905457 -117.11737061 235.98405457 C-114.12853314 232.29812571 -110.17678861 231.62076681 -105.76190186 230.45280457 C-104.02130868 229.972375 -102.28075025 229.49181954 -100.54022217 229.01115417 C-99.62438354 228.76219391 -98.70854492 228.51323364 -97.76495361 228.25672913 C-82.98825729 224.2294829 -68.33791263 219.94376375 -53.86737061 214.92155457 C-53.20178131 214.69226257 -52.53619202 214.46297058 -51.85043335 214.22673035 C-45.73944285 212.11439745 -39.86541932 209.96474264 -34.11737061 206.98405457 C-35.01197998 206.42717957 -35.90658936 205.87030457 -36.82830811 205.29655457 C-44.30510689 200.59631886 -51.35753238 195.69025776 -58.11737061 189.98405457 C-58.80186279 189.44522644 -59.48635498 188.90639832 -60.19158936 188.35124207 C-72.35503694 178.45798607 -81.29173025 163.71167802 -83.70721436 148.19499207 C-83.82194092 146.92913269 -83.93666748 145.66327332 -84.05487061 144.35905457 C-84.18764404 143.08803894 -84.32041748 141.81702332 -84.45721436 140.50749207 C-84.11737061 136.98405457 -84.11737061 136.98405457 -81.80877686 134.08561707 C-77.20302528 130.48925372 -72.75171371 130.42638921 -67.11737061 130.98405457 C-63.76199433 132.32620508 -61.65947858 133.44194659 -59.11737061 135.98405457 C-58.77262058 138.45328977 -58.5165743 140.87860723 -58.30487061 143.35905457 C-56.54008297 159.811965 -47.88913826 173.5524898 -35.11737061 183.98405457 C-32.0930746 186.26188694 -29.00130819 188.42265585 -25.86737061 190.54655457 C-25.09868652 191.0716864 -24.33000244 191.59681824 -23.5380249 192.13786316 C-17.79472889 195.97499386 -17.79472889 195.97499386 -11.11737061 196.98405457 C-8.05017121 195.83691893 -5.30599396 194.27362776 -2.49237061 192.60905457 C-1.30683594 191.92818787 -1.30683594 191.92818787 -0.09735107 191.23356628 C7.44439897 186.81951905 14.95897716 182.0194122 21.07794189 175.72624207 C22.88262939 173.98405457 22.88262939 173.98405457 24.88262939 173.98405457 C25.14302002 173.41042175 25.40341064 172.83678894 25.67169189 172.24577332 C26.97243503 169.81632082 28.49377521 167.91086886 30.25762939 165.79655457 C37.01559687 157.18400973 39.21461488 148.33221425 40.19512939 137.54655457 C39.81861206 134.4591124 39.11526317 133.13695142 36.88262939 130.98405457 C33.97547128 130.03091159 31.30538129 129.85574426 28.25923157 129.84602356 C27.33540176 129.84057022 26.41157196 129.83511688 25.45974731 129.82949829 C24.4534024 129.82845596 23.4470575 129.82741364 22.41021729 129.82633972 C21.34477188 129.821259 20.27932648 129.81617828 19.18159485 129.8109436 C16.86806624 129.80024438 14.55452732 129.79162244 12.24098396 129.78482437 C8.58049732 129.77303724 4.92012875 129.75358574 1.25968933 129.73170471 C-9.14777715 129.67007474 -19.55523087 129.61599813 -29.96282959 129.58268738 C-36.32823891 129.56176485 -42.69343187 129.52648332 -49.05871773 129.48192978 C-51.4855959 129.46775316 -53.91251234 129.45904361 -56.33942986 129.4558754 C-59.73170564 129.45097726 -63.12340494 129.4278476 -66.51556396 129.40055847 C-68.02204498 129.40506767 -68.02204498 129.40506767 -69.55895996 129.40966797 C-74.53449404 129.3501055 -78.11450979 129.29700083 -82.11737061 125.98405457 C-83.55487061 124.04655457 -83.55487061 124.04655457 -84.11737061 121.98405457 C-83.36238592 119.41710664 -82.6436804 118.31840291 -80.38110352 116.88105774 C-77.62085018 115.78730856 -75.49083678 115.74363355 -72.52264404 115.75700378 C-70.84135406 115.75723038 -70.84135406 115.75723038 -69.12609863 115.75746155 C-67.31966888 115.7729454 -67.31966888 115.7729454 -65.47674561 115.78874207 C-63.62076752 115.79298691 -63.62076752 115.79298691 -61.72729492 115.7973175 C-58.44585519 115.80661256 -55.16461307 115.82456751 -51.88323975 115.84672546 C-48.53161439 115.86722408 -45.17998053 115.87615732 -41.82830811 115.88639832 C-35.25790839 115.9084543 -28.68767786 115.94298225 -22.11737061 115.98405457 C-22.11737061 111.36405457 -22.11737061 106.74405457 -22.11737061 101.98405457 C-23.56917725 102.00500183 -25.02098389 102.0259491 -26.51678467 102.04753113 C-31.95125293 102.12044266 -37.38567877 102.16603934 -42.82049561 102.20378113 C-45.16366876 102.22378068 -47.50679274 102.25098933 -49.84979248 102.28581238 C-53.23598432 102.33484582 -56.62151102 102.35714077 -60.00799561 102.37467957 C-61.03974915 102.39532471 -62.07150269 102.41596985 -63.13452148 102.4372406 C-73.31720021 102.44031663 -82.37724381 99.91245353 -90.49627686 93.64421082 C-94.23254442 89.81791271 -95.49279234 86.49269706 -95.52142334 81.18742371 C-95.53410751 80.0459639 -95.54679169 78.90450409 -95.55986023 77.72845459 C-95.55692459 76.50440414 -95.55398895 75.2803537 -95.55096436 74.01921082 C-95.55620621 72.75314499 -95.56144806 71.48707916 -95.56684875 70.18264771 C-95.57326853 67.50683941 -95.57337472 64.83188509 -95.56341553 62.15617371 C-95.55193038 58.73858083 -95.57213582 55.32202195 -95.60133266 51.90456486 C-95.62416189 48.63027544 -95.61722509 45.35606113 -95.61346436 42.08171082 C-95.62469833 40.8596846 -95.63593231 39.63765839 -95.64750671 38.37860107 C-95.59508929 31.98291582 -95.53882334 27.7895362 -91.11737061 22.98405457 C-88.89080811 21.22624207 -88.89080811 21.22624207 -86.49237061 19.85905457 C-85.71635498 19.40272644 -84.94033936 18.94639832 -84.14080811 18.47624207 C-76.14728191 14.53111673 -67.65585787 11.64268653 -59.24237061 8.73405457 C-57.74383545 8.18878113 -57.74383545 8.18878113 -56.21502686 7.63249207 C-47.48976901 4.6377584 -38.77798057 3.05152085 -30.11737061 6.98405457 C-29.62237061 10.44905457 -29.62237061 10.44905457 -29.11737061 13.98405457 C-33.41133144 17.0825118 -37.55640493 19.08846463 -42.59783936 20.74577332 C-43.29250809 20.98189835 -43.98717682 21.21802338 -44.70289612 21.46130371 C-46.9008682 22.20631325 -49.10268633 22.93910204 -51.30487061 23.67155457 C-52.79407467 24.17400499 -54.28300987 24.67725304 -55.77166748 25.18132019 C-59.55036403 26.45863918 -63.3329089 27.723922 -67.11737061 28.98405457 C-68.10737061 29.31405457 -69.09737061 29.64405457 -70.11737061 29.98405457 C-70.44737061 37.90405457 -70.77737061 45.82405457 -71.11737061 53.98405457 C-67.43194092 53.93184753 -67.43194092 53.93184753 -63.67205811 53.87858582 C-61.27916627 53.8551558 -58.88628745 53.83695891 -56.49334717 53.81925964 C-54.83671298 53.80421991 -53.1801183 53.7837828 -51.52362061 53.75773621 C-49.13550031 53.72113941 -46.74790873 53.70428017 -44.35955811 53.69108582 C-43.25763626 53.66786003 -43.25763626 53.66786003 -42.13345337 53.64416504 C-37.38273988 53.64262781 -34.12446351 54.41274149 -30.11737061 56.98405457 C-28.74237061 59.67155457 -28.74237061 59.67155457 -28.11737061 61.98405457 C-31.99328635 66.06947927 -33.90386589 67.91333799 -39.6708374 68.09757996 C-41.13609759 68.09742197 -42.60136384 68.09179276 -44.06658936 68.08171082 C-44.83920609 68.08029587 -45.61182281 68.07888092 -46.40785217 68.0774231 C-48.8735645 68.07182923 -51.33918576 68.05927789 -53.80487061 68.04655457 C-55.47739533 68.04153877 -57.14992149 68.036976 -58.82244873 68.03288269 C-62.92079107 68.02186181 -67.0190654 68.00460141 -71.11737061 67.98405457 C-71.08438159 70.75813106 -71.01727981 73.52411386 -70.92987061 76.29655457 C-70.92406982 77.08223816 -70.91826904 77.86792175 -70.91229248 78.67741394 C-70.77253117 83.31360998 -70.77253117 83.31360998 -68.18499756 86.99504089 C-63.8378751 88.3965684 -59.76702955 88.46403075 -55.22283936 88.49577332 C-53.80180656 88.52270012 -53.80180656 88.52270012 -52.35206604 88.5501709 C-49.33637904 88.60420544 -46.32084971 88.63814783 -43.30487061 88.67155457 C-41.25602058 88.70473367 -39.20719133 88.73922388 -37.15838623 88.77507019 C-32.14482823 88.85992813 -27.13131644 88.92677222 -22.11737061 88.98405457 C-22.12736336 87.40004852 -22.12736336 87.40004852 -22.13755798 85.78404236 C-22.19834588 75.83720749 -22.24333209 65.89041026 -22.27280712 55.94343185 C-22.2884699 50.82945266 -22.30971944 45.7156233 -22.34368896 40.60173035 C-22.37626044 35.66748327 -22.39421901 30.7333804 -22.40200233 25.79903412 C-22.40754981 23.91554239 -22.41838256 22.03205865 -22.43456078 20.14862823 C-22.45630568 17.5125415 -22.45933877 14.87705235 -22.45794678 12.2408905 C-22.4687326 11.46045883 -22.47951843 10.68002716 -22.4906311 9.87594604 C-22.47235672 6.68234653 -22.33374869 4.38008195 -20.78749084 1.55003357 C-15.55161077 -3.35936042 -6.19125686 -2.97065574 0 0 Z " fill="#487CFF" transform="translate(797.1173706054688,11.015945434570313)"/>
<path d="M0 0 C1.93045921 -0.01029488 1.93045921 -0.01029488 3.8999176 -0.02079773 C7.42105662 -0.03870575 10.94194605 -0.03756397 14.46311688 -0.03185534 C17.41229528 -0.02875664 20.36142621 -0.03486428 23.31059784 -0.04089409 C30.27839468 -0.0549332 37.24606893 -0.05338632 44.21386719 -0.04199219 C51.37341684 -0.03054224 58.53259052 -0.04453504 65.69209057 -0.07138866 C71.85969394 -0.09364566 78.0271802 -0.10015978 84.19482082 -0.09431225 C87.86897616 -0.0909615 91.54289127 -0.09322947 95.21701241 -0.11056328 C99.32590065 -0.12910149 103.43407407 -0.1147434 107.54296875 -0.09765625 C109.33821991 -0.1121582 109.33821991 -0.1121582 111.16973877 -0.12695312 C122.80450343 -0.02629487 133.50506457 2.35051148 142.22436523 10.40405273 C142.76834961 10.89776367 143.31233398 11.39147461 143.87280273 11.90014648 C147.00268807 15.38282236 146.3726102 19.81296721 146.37153625 24.20332336 C146.37521294 25.00611306 146.37888963 25.80890275 146.38267773 26.63601941 C146.39372064 29.33515218 146.39755942 32.03424645 146.40136719 34.73339844 C146.40763131 36.6649691 146.41427806 38.59653856 146.42127991 40.52810669 C146.43869259 45.78229238 146.4492421 51.03646896 146.45748544 56.29067636 C146.46263433 59.57208874 146.46871007 62.85349829 146.47499657 66.13490868 C146.49404818 76.39822575 146.50828019 86.66153562 146.51660854 96.92486697 C146.52638613 108.77887738 146.55271948 120.63270132 146.59310943 132.486646 C146.62324628 141.6451125 146.63807504 150.80352547 146.64138955 159.9620406 C146.64374252 165.43403497 146.65273529 170.90583012 146.67785072 176.37777138 C146.70109431 181.52501243 146.70537959 186.67192254 146.69508934 191.81920242 C146.69459299 193.70822562 146.70094256 195.59726491 146.71464539 197.48623848 C146.73231097 200.06583409 146.72528488 202.64423515 146.71211243 205.22383118 C146.72308167 205.97082458 146.73405092 206.71781799 146.74535257 207.48744756 C146.68247208 212.59009417 145.4045865 215.4551624 142.22436523 219.40405273 C134.77996159 225.82823832 124.25379515 228.5086846 114.61427307 228.55122375 C112.93834579 228.56195671 112.93834579 228.56195671 111.2285614 228.57290649 C110.01231583 228.5755954 108.79607025 228.5782843 107.54296875 228.58105469 C106.25465149 228.58762589 104.96633423 228.59419708 103.63897705 228.60096741 C99.3770877 228.62193242 95.11519828 228.63235912 90.85327148 228.64233398 C89.38331522 228.64638364 87.91335914 228.65050062 86.44340324 228.65468407 C79.53961934 228.67371501 72.63584601 228.68795335 65.73204094 228.69629604 C57.77086457 228.70607666 49.80996562 228.73242622 41.84888703 228.77279693 C35.68823149 228.80296336 29.52765552 228.81776519 23.36692756 228.82107705 C19.69015187 228.82342589 16.01367329 228.83236516 12.33697701 228.85753822 C8.23619221 228.88516449 4.13602819 228.88098628 0.03515625 228.87402344 C-1.17906509 228.8868335 -2.39328644 228.89964355 -3.64430237 228.9128418 C-14.1671211 228.84760814 -14.1671211 228.84760814 -18.77563477 224.40405273 C-19.46313477 221.34155273 -19.46313477 221.34155273 -18.77563477 218.40405273 C-12.51323953 213.06259797 -3.41836182 214.25340407 4.31665039 214.24633789 C5.5302977 214.24125717 6.74394501 214.23617645 7.99436951 214.23094177 C10.62491924 214.22025646 13.25541696 214.21125071 15.88597488 214.20482254 C20.04620787 214.19410283 24.20636073 214.17385036 28.36654663 214.15170288 C40.19313917 214.08990259 52.01972493 214.03570877 63.84643555 214.00268555 C70.3853405 213.98434769 76.92410912 213.95543033 83.46291387 213.91468084 C86.92042602 213.89361203 90.37776649 213.87815362 93.83534622 213.87587357 C97.68733055 213.87332995 101.53897681 213.84788389 105.39086914 213.82055664 C106.53590408 213.82356277 107.68093903 213.82656891 108.860672 213.82966614 C109.90926895 213.81857315 110.95786591 213.80748016 112.03823853 213.79605103 C113.40370788 213.79108581 113.40370788 213.79108581 114.79676247 213.78602028 C117.75585364 213.32042648 119.12274802 212.52723302 121.22436523 210.40405273 C121.82389545 208.51465083 121.82389545 208.51465083 121.74334717 206.39875793 C121.75725998 205.58687515 121.77117279 204.77499237 121.7855072 203.93850708 C121.77796165 202.60817947 121.77796165 202.60817947 121.77026367 201.25097656 C121.78060135 200.31419571 121.79093903 199.37741486 121.80158997 198.4122467 C121.83111957 195.31168577 121.8325193 192.21177475 121.83374023 189.11108398 C121.848715 186.96301521 121.86544065 184.81495798 121.8838501 182.66691589 C121.92761466 177.009974 121.94754293 171.35318743 121.96258545 165.69610596 C121.98212369 159.92483297 122.02409735 154.15372854 122.06420898 148.38256836 C122.13960978 137.05644836 122.1898415 125.73036591 122.22436523 114.40405273 C121.21857028 114.40958349 121.21857028 114.40958349 120.19245625 114.41522598 C103.8758697 114.50356905 87.55935892 114.56975836 71.242589 114.61130142 C63.35190555 114.63192542 55.46138175 114.66004274 47.57080078 114.70581055 C40.69324105 114.7456835 33.81579694 114.77148674 26.93812484 114.78040671 C23.29649809 114.78562076 19.65520213 114.79787174 16.01368141 114.82697296 C11.94809937 114.85919944 7.88309216 114.86001187 3.81738281 114.8581543 C2.61041245 114.8725354 1.40344208 114.8869165 0.15989685 114.9017334 C-7.97959136 114.86138073 -7.97959136 114.86138073 -12.02754211 112.53582764 C-13.77563477 110.40405273 -13.77563477 110.40405273 -14.33813477 107.84155273 C-13.77563477 105.40405273 -13.77563477 105.40405273 -11.96313477 103.65405273 C-8.36806556 101.59972748 -5.58105531 101.27984922 -1.51753235 101.28379822 C-0.42798248 101.28242355 0.66156738 101.28104889 1.78413391 101.27963257 C3.57732307 101.28502548 3.57732307 101.28502548 5.40673828 101.29052734 C7.2947113 101.2903083 7.2947113 101.2903083 9.2208252 101.29008484 C12.67303103 101.28979763 16.1252022 101.29568203 19.57739997 101.3026588 C23.18488372 101.30890503 26.79236824 101.30949714 30.39985657 101.3106842 C37.23150442 101.31379377 44.0631363 101.32200212 50.89477712 101.33203369 C60.12612425 101.3452951 69.35747574 101.35069777 78.58882999 101.35653591 C93.13402038 101.36594224 107.67917704 101.38586367 122.22436523 101.40405273 C121.89436523 73.68405273 121.56436523 45.96405273 121.22436523 17.40405273 C117.38057354 15.48215689 116.09709796 15.15305822 112.02046204 15.14576721 C110.96778641 15.13893921 109.91511078 15.13211121 108.83053589 15.12507629 C107.10602707 15.12890572 107.10602707 15.12890572 105.34667969 15.1328125 C104.13160233 15.12758575 102.91652496 15.12235901 101.66462708 15.11697388 C99.02361133 15.10672569 96.38285559 15.10001511 93.74184608 15.09909248 C89.55936548 15.09714846 85.37704983 15.07907516 81.19462585 15.05833435 C70.80246513 15.00918314 60.41025947 14.97831268 50.01800537 14.95703125 C41.94746924 14.94047595 33.87707441 14.91755946 25.8066327 14.8740105 C21.65605012 14.85232264 17.50573651 14.84416807 13.35510123 14.84640324 C10.15301776 14.84433264 6.95104926 14.82294737 3.74902344 14.8046875 C2.60947205 14.80926468 1.46992065 14.81384186 0.2958374 14.81855774 C-14.49489599 14.68479151 -14.49489599 14.68479151 -18.77563477 10.40405273 C-18.81656414 8.0710784 -18.818052 5.73700049 -18.77563477 3.40405273 C-12.89031003 -0.53838345 -6.8923297 -0.02562077 0 0 Z " fill="#487CFF" transform="translate(126.775634765625,21.595947265625)"/>
<path d="M0 0 C2.25046033 2.10526934 3.06550528 3.87942685 3.9375 6.8125 C0.81238067 10.37532717 -2.13589363 11.93906481 -6.515625 13.6875 C-7.44420319 14.06430908 -7.44420319 14.06430908 -8.39154053 14.44873047 C-10.36147276 15.24629495 -12.33652847 16.03003266 -14.3125 16.8125 C-25.97018391 21.22751484 -25.97018391 21.22751484 -37.0625 26.8125 C-37.79893817 28.8649189 -37.79893817 28.8649189 -38.0625 30.8125 C-31.98895518 34.95039619 -25.78718638 34.983024 -18.625 35.1875 C-17.8810498 35.21062256 -17.13709961 35.23374512 -16.37060547 35.25756836 C4.44970444 35.58946119 24.16446387 28.10082309 43.65795898 21.57177734 C44.9854452 21.13102303 46.3129544 20.69033793 47.64048767 20.24972534 C50.11856237 19.42641765 52.58144977 18.57679429 55.04493713 17.70901489 C62.28787366 15.26144053 69.26850759 13.53687615 76.9375 14.8125 C81.57253493 17.168444 81.57253493 17.168444 83 19.6875 C82.89735689 23.17736561 81.40627359 24.38197889 78.9375 26.8125 C75.66066913 28.36693405 72.24607069 29.35921647 68.7734375 30.38671875 C67.73782684 30.70816864 66.70221619 31.02961853 65.63522339 31.36080933 C62.19903277 32.42327369 58.75599743 33.46148631 55.3125 34.5 C52.90020985 35.24111119 50.48843361 35.98389701 48.07714844 36.72827148 C42.98921126 38.29643442 37.89856591 39.85529936 32.80566406 41.40722656 C24.98382372 43.79211513 17.17431948 46.21589715 9.3671875 48.6484375 C8.07942244 49.049502 6.79165186 49.4505488 5.50387573 49.85157776 C2.96670281 50.64170327 0.42954465 51.4318761 -2.10760498 52.22207642 C-7.98169556 54.05003039 -13.85778218 55.87151504 -19.734375 57.69140625 C-20.83224335 58.03163315 -21.93011169 58.37186005 -23.06124878 58.72239685 C-28.82614106 60.50731532 -34.59380786 62.28270363 -40.36523438 64.04638672 C-42.14767548 64.5918943 -42.14767548 64.5918943 -43.96612549 65.14842224 C-46.23211498 65.8414249 -48.49864715 66.53265648 -50.76580811 67.22181702 C-52.28987274 67.68810768 -52.28987274 67.68810768 -53.84472656 68.16381836 C-54.73436096 68.43479843 -55.62399536 68.7057785 -56.54058838 68.98497009 C-59.09747408 69.82397625 -61.57547459 70.78634104 -64.0625 71.8125 C-63.50173199 74.30254504 -63.50173199 74.30254504 -62.0625 76.8125 C-57.6116511 78.74969739 -53.7144607 79.06355233 -48.89625549 79.06646729 C-48.19778045 79.06958727 -47.49930541 79.07270725 -46.77966446 79.07592177 C-44.45141113 79.08386572 -42.12342105 79.0775923 -39.79516602 79.07128906 C-38.12092944 79.07400055 -36.44669406 79.07756237 -34.77246094 79.08190918 C-30.23320498 79.09101734 -25.69404006 79.08749521 -21.15478253 79.08115101 C-16.40013718 79.07608205 -11.64549954 79.08078503 -6.89085388 79.08392334 C1.09434404 79.08756072 9.07950496 79.08277022 17.06469727 79.07324219 C26.28963802 79.06236181 35.51449033 79.06588111 44.73942894 79.076895 C52.66571605 79.0859788 60.59197658 79.08724769 68.51826721 79.08201766 C73.249619 79.0789035 77.98092926 79.07847333 82.71227837 79.08509064 C87.16184745 79.09087922 91.61130284 79.08683952 96.06085968 79.07530212 C97.69144312 79.07266347 99.32203616 79.07340703 100.95261574 79.07782745 C103.18329582 79.08331593 105.41361461 79.07640909 107.64427185 79.06646729 C108.89103919 79.06571323 110.13780653 79.06495918 111.4223547 79.06418228 C115.24463039 78.79050965 118.30496549 77.98683377 121.9375 76.8125 C122.2675 75.1625 122.5975 73.5125 122.9375 71.8125 C117.4004499 69.23865705 111.91392493 67.6519445 105.98828125 66.21875 C104.06961792 65.74106025 102.15099944 65.26319033 100.23242188 64.78515625 C97.23117213 64.04475767 94.22921501 63.30742165 91.22631836 62.57373047 C88.31158933 61.85924988 85.39987569 61.13338188 82.48828125 60.40625 C81.59031326 60.19053345 80.69234528 59.97481689 79.76716614 59.75256348 C71.76749981 57.74482369 71.76749981 57.74482369 68.9375 54.8125 C68.375 52.375 68.375 52.375 68.9375 49.8125 C72.35933021 46.50139509 74.61251313 45.24137993 79.37109375 45.2421875 C88.5020313 45.53785351 97.24785929 47.91334079 106.05786133 50.18261719 C108.99248703 50.93557235 111.93365851 51.65677626 114.87695312 52.375 C140.40352754 58.7380929 140.40352754 58.7380929 146.9375 67.8125 C148.55120025 71.03990051 148.37650439 74.31356946 147.9375 77.8125 C144.94927067 84.60393029 138.67627971 87.77358207 132.11968994 90.59463501 C123.3030567 93.76323933 114.25479209 93.18919093 105.0234375 93.10546875 C103.19927318 93.09986442 101.37510431 93.09559828 99.55093384 93.09260559 C94.78008267 93.08122265 90.00951119 93.0518128 85.23876953 93.01849365 C80.35843691 92.98765057 75.47805852 92.97406999 70.59765625 92.95898438 C61.04414883 92.92693605 51.49084779 92.87582014 41.9375 92.8125 C41.94638245 93.38497971 41.95526489 93.95745941 41.9644165 94.54728699 C42.0536903 100.56682229 42.11356199 106.58616616 42.15722656 112.60620117 C42.17720193 114.84553684 42.20439182 117.08482129 42.23925781 119.32397461 C42.56572231 140.8466266 39.84297806 155.26657819 25.18359375 171.78125 C20.65518492 175.87650668 16.26193775 176.20289702 10.3828125 176.0625 C6.96497555 175.71307258 4.69359685 174.86190535 1.9375 172.8125 C1.02734375 170.5234375 1.02734375 170.5234375 0.9375 167.8125 C2.6328125 165.26953125 2.6328125 165.26953125 5.0625 162.625 C14.19824696 152.05424457 17.18691253 141.72240554 17.3515625 127.96875 C17.37092865 126.95905151 17.3902948 125.94935303 17.4102478 124.90905762 C17.46963227 121.71028879 17.51626357 118.51148316 17.5625 115.3125 C17.60071767 113.13279752 17.63977156 110.95310954 17.6796875 108.7734375 C17.77529955 103.45325442 17.86046524 98.13298278 17.9375 92.8125 C16.92431702 92.82138245 15.91113403 92.83026489 14.86724854 92.8394165 C5.27612398 92.92082643 -4.31492963 92.98062005 -13.90632248 93.01974869 C-18.83629612 93.04054206 -23.76598879 93.06870735 -28.69580078 93.11425781 C-33.46151709 93.1580119 -38.2269647 93.18169901 -42.99286652 93.19200897 C-44.80277989 93.19934765 -46.61268008 93.21367708 -48.42247772 93.23542023 C-61.20138109 93.38271388 -73.18700039 92.98674551 -83.5 84.37109375 C-86.46229486 81.41620463 -87.80544056 78.87281223 -88.32421875 74.71484375 C-88.30512261 71.00382689 -87.67133041 68.62915233 -85.4375 65.6328125 C-79.53178594 59.87908373 -72.80671038 57.23096904 -65.0625 54.8125 C-64.12744629 54.51923828 -63.19239258 54.22597656 -62.22900391 53.92382812 C-55.52228927 51.83435176 -48.7988678 49.80414431 -42.0625 47.8125 C-42.84753906 47.52117187 -43.63257813 47.22984375 -44.44140625 46.9296875 C-58.29615368 41.52378605 -58.29615368 41.52378605 -62.20703125 34.86328125 C-63.63346405 31.44375056 -63.8838116 28.37582827 -63.0625 24.8125 C-56.88438361 14.02562797 -43.12982593 10.38560337 -32.24047852 5.88110352 C-30.82848373 5.29300321 -29.41991535 4.69660884 -28.01489258 4.09204102 C-9.72782639 -3.77201432 -9.72782639 -3.77201432 0 0 Z " fill="#487CFF" transform="translate(1019.0625,80.1875)"/>
<path d="M0 0 C0.84525468 -0.00384115 1.69050936 -0.00768229 2.56137782 -0.01163983 C3.49015607 -0.01077335 4.41893431 -0.00990687 5.37585735 -0.00901413 C6.85568168 -0.01347081 6.85568168 -0.01347081 8.36540145 -0.01801753 C11.68641538 -0.02672108 15.00739333 -0.02821418 18.32841778 -0.02970505 C20.7033321 -0.03433203 23.07824567 -0.03935652 25.45315838 -0.04475021 C31.91598609 -0.05788729 38.37880689 -0.06435823 44.84164548 -0.06876087 C48.87685131 -0.07152327 52.91205474 -0.07576062 56.94725895 -0.08026505 C68.11896425 -0.09245765 79.29066764 -0.10275702 90.46237946 -0.10614014 C91.53495024 -0.10646949 91.53495024 -0.10646949 92.62918912 -0.10680549 C93.34594947 -0.10702377 94.06270983 -0.10724204 94.8011902 -0.10746694 C96.25362543 -0.1079104 97.70606067 -0.10835697 99.1584959 -0.10880661 C100.23918351 -0.10913875 100.23918351 -0.10913875 101.3417032 -0.10947761 C113.0160347 -0.11342573 124.69030379 -0.1308802 136.36461119 -0.15416613 C148.34964915 -0.17787896 160.33465579 -0.19034195 172.31971759 -0.19150805 C179.0492179 -0.19242485 185.7786369 -0.19817824 192.50811481 -0.21632767 C198.83722263 -0.23277139 205.16617591 -0.23498179 211.49529743 -0.22618866 C213.81970412 -0.22541632 216.144119 -0.22978683 218.46850491 -0.23964691 C221.63906107 -0.25230886 224.80906516 -0.24652064 227.97961712 -0.23606491 C229.36274624 -0.24814952 229.36274624 -0.24814952 230.77381736 -0.26047826 C235.85070601 -0.22126038 239.52930427 0.18160664 243.8682127 3.13142776 C244.9307127 6.13142776 244.9307127 6.13142776 244.8682127 9.13142776 C243.08041612 11.7237328 241.90818455 12.11810381 238.8682127 13.13142776 C237.35804096 13.22046395 235.84421692 13.25340725 234.33142376 13.25168228 C233.40174282 13.25305695 232.47206188 13.25443161 231.51420879 13.25584793 C230.49641338 13.25225266 229.47861797 13.24865738 228.42998028 13.24495316 C227.35664944 13.24509918 226.2833186 13.24524521 225.17746258 13.24539566 C221.62253595 13.24469786 218.06766144 13.23691163 214.51274395 13.22908401 C212.05080475 13.22721936 209.58886517 13.22579568 207.12692547 13.2247963 C200.64140584 13.22097483 194.15590855 13.21114767 187.67039776 13.20009232 C181.05469852 13.18987025 174.43899568 13.18529697 167.82329082 13.18025589 C154.83825496 13.1695251 141.85323569 13.15245309 128.8682127 13.13142776 C128.8682127 16.76142776 128.8682127 20.39142776 128.8682127 24.13142776 C129.96909222 24.12476593 131.06997173 24.1181041 132.20421124 24.11124039 C142.61947185 24.0502143 153.03469581 24.00535237 163.45009518 23.97599125 C168.80373667 23.96038857 174.1572329 23.93924964 179.51079082 23.90510941 C184.68497664 23.87232254 189.85902342 23.85453423 195.03330517 23.84679604 C196.99949867 23.84128704 198.96568525 23.83053005 200.93181896 23.81423759 C228.55818317 23.59458083 228.55818317 23.59458083 239.8682127 33.13142776 C243.26050236 36.8629464 244.98370383 39.24209575 245.02934551 44.25813675 C245.03895306 45.10919495 245.0485606 45.96025314 245.05845928 46.83710098 C245.0648341 48.21835915 245.0648341 48.21835915 245.0713377 49.62752151 C245.07703777 50.57200653 245.08273785 51.51649155 245.08861065 52.48959732 C245.09806563 54.48941805 245.1045966 56.4892544 245.10844707 58.48909378 C245.11816248 61.55308953 245.14918514 64.61641739 245.1807127 67.68025589 C245.18724165 69.6210071 245.19249255 71.56176313 245.1963377 73.50252151 C245.2086845 74.42133606 245.2210313 75.3401506 245.23375225 76.28680801 C245.23075115 77.14101837 245.22775005 77.99522873 245.22465801 78.87532425 C245.22830364 79.62652039 245.23194927 80.37771652 245.23570538 81.15167618 C244.76579946 83.68314702 243.84092082 84.52902761 241.8682127 86.13142776 C237.43317961 88.60982861 232.82222951 88.72347195 227.8682127 88.13142776 C222.77730361 86.04051867 222.77730361 86.04051867 220.8682127 84.13142776 C220.74623462 82.75091918 220.69052371 81.36445129 220.66289043 79.97883987 C220.64294521 79.09800232 220.62299999 78.21716476 220.60245037 77.30963516 C220.57738163 75.87370766 220.57738163 75.87370766 220.55180645 74.40877151 C220.53102535 73.43356049 220.51024426 72.45834946 220.48883343 71.45358658 C220.42322858 68.32544146 220.36440242 65.19720954 220.3057127 62.06892776 C220.26253786 59.95368426 220.21892393 57.83844967 220.17485332 55.72322464 C220.06753614 50.52605114 219.96617773 45.32878494 219.8682127 40.13142776 C214.22250614 38.535485 209.19200428 37.82949261 203.34086895 37.81258011 C202.53015438 37.80253448 201.71943981 37.79248886 200.88415813 37.78213882 C198.23301617 37.7515122 195.58197421 37.73432936 192.9307127 37.71736526 C191.08125746 37.69863706 189.23181061 37.67906244 187.38237286 37.65867996 C182.53604888 37.60752723 177.68969725 37.56781164 172.84324932 37.53053665 C167.88926224 37.49039089 162.93538852 37.43934695 157.98149395 37.38924026 C148.27714669 37.29268078 138.57273517 37.20821252 128.8682127 37.13142776 C128.87709515 37.71358551 128.88597759 38.29574326 128.8951292 38.89554214 C128.9835146 44.94599479 129.04391005 50.99626456 129.08793926 57.04719925 C129.10807436 59.30638958 129.13538459 61.56552768 129.16997051 63.824543 C129.21840432 67.06889597 129.24116246 70.31256094 129.2588377 73.55720901 C129.27948284 74.56979279 129.30012798 75.58237656 129.32139874 76.62564468 C129.32170086 77.56639343 129.32200298 78.50714218 129.32231426 79.47639847 C129.33119671 80.30468658 129.34007915 81.1329747 129.34923077 81.98636246 C128.8682127 84.13142776 128.8682127 84.13142776 126.96336651 85.88037491 C122.31312317 88.65711626 117.15321721 88.66175694 111.8682127 88.13142776 C106.2682127 85.93142776 106.2682127 85.93142776 104.8682127 83.13142776 C104.77857423 81.65041966 104.75063345 80.16543352 104.75468731 78.68172073 C104.75480061 77.30051544 104.75480061 77.30051544 104.75491619 75.89140701 C104.76007748 74.89553574 104.76523876 73.89966446 104.77055645 72.87361526 C104.7719714 71.85542709 104.77338634 70.83723892 104.77484417 69.78819656 C104.7804537 66.52757741 104.79300782 63.26702626 104.8057127 60.00642776 C104.81072647 57.7993975 104.81528959 55.59236617 104.81938457 53.38533401 C104.83042622 47.96734196 104.84717365 42.54938972 104.8682127 37.13142776 C94.29751433 37.21591802 83.72696543 37.31083516 73.15648079 37.41895485 C68.24783863 37.46883734 63.33921716 37.51516803 58.43046856 37.55330276 C53.69062904 37.59025729 48.950966 37.63664469 44.21127796 37.68949127 C42.40567982 37.70798126 40.60004392 37.72310901 38.79438877 37.73477173 C36.25948791 37.7517268 33.72498648 37.78078354 31.19023418 37.81258011 C30.07784374 37.81582039 30.07784374 37.81582039 28.94298077 37.81912613 C23.49043955 37.90613414 17.87612624 38.12351422 13.8682127 42.13142776 C13.56637715 44.00738727 13.56637715 44.00738727 13.61284161 46.16633987 C13.60240322 47.41289604 13.60240322 47.41289604 13.59175396 48.68463516 C13.59275097 49.58360016 13.59374798 50.48256516 13.5947752 51.40877151 C13.5744881 53.30265765 13.55363736 55.19653782 13.5322752 57.09041214 C13.50964779 60.08387152 13.49319676 63.07709571 13.48735332 66.07063675 C13.47785483 68.95461685 13.44411014 71.83752942 13.4072752 74.72127151 C13.41232067 75.61821228 13.41736614 76.51515305 13.42256451 77.43927383 C13.32411542 83.63121289 13.32411542 83.63121289 11.02202129 86.15706253 C5.95567315 88.44903662 1.35432351 88.63972557 -4.1317873 88.13142776 C-7.15465614 86.74594622 -8.80050155 85.46271352 -11.1317873 83.13142776 C-11.39921284 81.30557632 -11.39921284 81.30557632 -11.42231464 79.06819534 C-11.4414542 77.8109742 -11.4414542 77.8109742 -11.46098042 76.52835464 C-11.46320606 75.62006409 -11.46543171 74.71177353 -11.4677248 73.77595901 C-11.4743816 72.84096069 -11.4810384 71.90596237 -11.48789692 70.94263077 C-11.49803701 68.95960332 -11.50271352 66.97654166 -11.50239277 64.99348831 C-11.50674522 61.97313078 -11.54299257 58.95425891 -11.58100605 55.93416214 C-11.58687823 54.00643275 -11.59084494 52.07869643 -11.5927248 50.15095901 C-11.60709583 49.25278961 -11.62146687 48.35462021 -11.63627338 47.42923355 C-11.59339231 41.47848423 -10.55875706 38.02612441 -7.1317873 33.13142776 C1.37632181 25.33384597 13.71458106 23.96909556 24.71928692 24.01790237 C26.02270283 24.01768333 26.02270283 24.01768333 27.35245037 24.01745987 C30.20929285 24.01815356 33.06606919 24.02592042 35.9229002 24.03377151 C37.90972642 24.03563763 39.89655309 24.03706062 41.88337994 24.03805923 C47.10133933 24.04186919 52.31927069 24.05168646 57.53721905 24.06276321 C62.86629641 24.07301007 68.19537832 24.07756387 73.5244627 24.08259964 C83.97239165 24.09331012 94.42029984 24.11036824 104.8682127 24.13142776 C104.8682127 20.50142776 104.8682127 16.87142776 104.8682127 13.13142776 C102.81773472 13.14142052 102.81773472 13.14142052 100.72583294 13.15161514 C87.85078804 13.21239877 74.97577222 13.25738728 62.10061646 13.28686428 C55.48117695 13.30252807 48.86185317 13.3237797 42.24248028 13.35774612 C35.85584848 13.39031362 29.46932808 13.40827541 23.08261967 13.41605949 C20.64453343 13.42160765 18.20645338 13.43244166 15.7684145 13.44861794 C12.35664035 13.47035703 8.94532804 13.4733961 5.5334959 13.47200394 C4.52289104 13.48278976 3.51228619 13.49357559 2.47105694 13.50468826 C-3.05967081 13.48022672 -7.01406602 13.24914904 -11.1317873 9.13142776 C-11.4442873 6.75642776 -11.4442873 6.75642776 -11.1317873 4.13142776 C-7.80260477 0.91704463 -4.53457276 0.00773501 0 0 Z " fill="#487CFF" transform="translate(324.13178730010986,13.868572235107422)"/>
<path d="M0 0 C0.48828125 3.35546875 0.48828125 3.35546875 0.3125 7.1875 C0.26738281 8.45980469 0.22226563 9.73210938 0.17578125 11.04296875 C0.11777344 12.01878906 0.05976562 12.99460937 0 14 C1.50550667 13.99000725 1.50550667 13.99000725 3.04142761 13.97981262 C12.50231618 13.91898475 21.96316504 13.8740193 31.42420483 13.84456348 C36.28817587 13.82891083 41.15198899 13.8076798 46.01586914 13.77368164 C50.71021895 13.74107402 55.4044169 13.72314397 60.09887123 13.71536827 C61.88943179 13.70982729 63.67998409 13.69900709 65.47047997 13.68280983 C67.97944443 13.66101679 70.48778221 13.65803384 72.99682617 13.65942383 C73.73625961 13.648638 74.47569305 13.63785217 75.23753357 13.6267395 C79.65910631 13.65322702 82.50282221 14.2393393 86 17 C87.0625 19.4375 87.0625 19.4375 87 22 C84.79965786 24.82901133 83.41880464 25.86039845 80 27 C77.42923471 27.09098225 74.88618965 27.12606038 72.31567383 27.11352539 C71.5349501 27.11367142 70.75422638 27.11381744 69.94984436 27.1139679 C67.36887841 27.11327114 64.7879846 27.10548982 62.20703125 27.09765625 C60.41769958 27.09579123 58.6283674 27.09436772 56.83903503 27.09336853 C52.12902416 27.08954999 47.41904411 27.07972533 42.70904541 27.06866455 C37.90303972 27.05843621 33.09702906 27.05386786 28.29101562 27.04882812 C18.86066136 27.03810249 9.43033807 27.02051102 0 27 C0 32.94 0 38.88 0 45 C4.26006958 44.9685791 4.26006958 44.9685791 8.60620117 44.93652344 C18.02973237 44.87000076 27.45327441 44.82596406 36.87697887 44.79275131 C42.5860005 44.77194952 48.29477986 44.74376805 54.00366211 44.69824219 C59.52150642 44.65451924 65.0391189 44.63080729 70.55712318 44.62049103 C72.65368609 44.6131469 74.75023748 44.59880658 76.84670067 44.57707977 C91.84025998 44.42798876 106.00877517 44.61798716 118 55 C121.01681041 58.27594847 121.36040637 60.4534505 121.29296875 64.859375 C121.28330078 65.97441406 121.27363281 67.08945313 121.26367188 68.23828125 C121.23853516 69.39714844 121.21339844 70.55601563 121.1875 71.75 C121.17396484 72.92433594 121.16042969 74.09867187 121.14648438 75.30859375 C121.1111478 78.20619298 121.06180979 81.10286427 121 84 C117.01257055 86.21654167 114.07460017 87.41443621 109.5 87.375 C108.6028125 87.38273437 107.705625 87.39046875 106.78125 87.3984375 C103.41390382 86.91603678 100.95641898 85.64342114 98 84 C97.9906543 83.41508789 97.98130859 82.83017578 97.97167969 82.22753906 C97.91786721 79.5675142 97.83424551 76.90922778 97.75 74.25 C97.73582031 73.32960938 97.72164062 72.40921875 97.70703125 71.4609375 C97.55154047 66.12542516 97.55154047 66.12542516 95.265625 61.421875 C90.56320278 58.47069968 85.29078605 58.85521483 79.89775085 58.86628723 C78.68086908 58.8628889 78.68086908 58.8628889 77.43940383 58.85942191 C74.72350406 58.85309645 72.00765437 58.85391034 69.29174805 58.85473633 C67.34342382 58.85174392 65.39510019 58.8483412 63.44677734 58.84455872 C58.15537954 58.83572256 52.86399791 58.83338075 47.57259345 58.83274293 C44.26602812 58.83203218 40.95946691 58.82989737 37.6529026 58.82724571 C26.11536015 58.81799338 14.57782925 58.81391066 3.0402832 58.81469727 C-7.7109236 58.81529795 -18.4620802 58.80474765 -29.2132743 58.7889536 C-38.44654715 58.77587328 -47.6798036 58.77051358 -56.91308564 58.77115268 C-62.42640744 58.77140753 -67.93968464 58.76856328 -73.45299721 58.75797462 C-78.6395989 58.74828547 -83.82611342 58.74822012 -89.0127182 58.75549126 C-90.91379359 58.7565361 -92.81487443 58.75418019 -94.71594048 58.7481308 C-97.31632895 58.7403936 -99.91641773 58.7450671 -102.51679993 58.75276184 C-103.26438531 58.74761828 -104.01197069 58.74247471 -104.78221017 58.73717529 C-110.36095272 58.77351243 -116.88314216 58.88314216 -121 63 C-121.32053126 65.08113808 -121.32053126 65.08113808 -121.30859375 67.46484375 C-121.33373047 68.34720703 -121.35886719 69.22957031 -121.38476562 70.13867188 C-121.41984699 72.0005828 -121.4511135 73.86256961 -121.47851562 75.72460938 C-121.50494141 76.60826172 -121.53136719 77.49191406 -121.55859375 78.40234375 C-121.57877563 79.61651978 -121.57877563 79.61651978 -121.59936523 80.85522461 C-122.09532605 83.51032259 -122.87880689 84.3704969 -125 86 C-130.53543468 87.84514489 -136.80088159 88.01159447 -142.125 85.5625 C-144 84 -144 84 -145 83 C-145.33747006 79.1131138 -145.32514983 75.21214291 -145.375 71.3125 C-145.41238281 70.22259766 -145.44976563 69.13269531 -145.48828125 68.00976562 C-145.58739003 58.96333623 -145.58739003 58.96333623 -142.734375 55.3984375 C-129.72054961 43.98345351 -114.2676845 44.58066594 -97.92578125 44.70703125 C-95.78916218 44.71263477 -93.65253923 44.71690129 -91.51591492 44.71989441 C-85.92474503 44.73128367 -80.33381336 44.76069934 -74.74273682 44.79400635 C-69.02448752 44.82483551 -63.30619929 44.83842708 -57.58789062 44.85351562 C-46.39180622 44.88557522 -35.1959603 44.93829422 -24 45 C-24 39.06 -24 33.12 -24 27 C-26.38677979 27.02094727 -28.77355957 27.04189453 -31.23266602 27.06347656 C-39.13151442 27.12984929 -47.03037535 27.17397638 -54.92942905 27.20724869 C-59.71718193 27.22809533 -64.50464831 27.25635942 -69.29223633 27.30175781 C-73.91528566 27.34532005 -78.53805996 27.36915909 -83.16129875 27.37950897 C-84.92231511 27.38688175 -86.68331696 27.40127915 -88.44421577 27.42292023 C-90.91699502 27.45209283 -93.38864775 27.45595032 -95.86157227 27.45410156 C-96.94591049 27.47567322 -96.94591049 27.47567322 -98.05215454 27.49768066 C-103.52015345 27.45364341 -106.55772211 25.92793656 -111 23 C-111.36585366 18.48780488 -111.36585366 18.48780488 -109.6875 16.25 C-105.8765383 13.42706541 -101.73651749 13.86474454 -97.22387695 13.88647461 C-96.43339966 13.88632858 -95.64292236 13.88618256 -94.82849121 13.8860321 C-92.21506 13.88672891 -89.60170001 13.89451045 -86.98828125 13.90234375 C-85.17652933 13.90420876 -83.3647769 13.90563227 -81.55302429 13.90663147 C-76.78382984 13.91045015 -72.01466582 13.92027492 -67.2454834 13.93133545 C-62.37915458 13.94156351 -57.51282084 13.94613208 -52.64648438 13.95117188 C-43.09764287 13.96189774 -33.54882397 13.9789664 -24 14 C-24.05800781 13.10796875 -24.11601563 12.2159375 -24.17578125 11.296875 C-24.24345703 9.54117187 -24.24345703 9.54117187 -24.3125 7.75 C-24.37050781 6.58984375 -24.42851563 5.4296875 -24.48828125 4.234375 C-24 1 -24 1 -21.62109375 -1.37109375 C-15.06956259 -5.44261162 -6.03437454 -4.8617126 0 0 Z " fill="#487CFF" transform="translate(1061,13)"/>
<path d="M0 0 C3.38853449 4.37866143 3.02459943 7.81359396 2.8762207 13.19897461 C2.86914597 14.16852585 2.86207123 15.13807709 2.8547821 16.13700867 C2.82685819 19.22486473 2.76412248 22.31088811 2.70043945 25.39819336 C2.67535404 27.49517233 2.65254129 29.5921798 2.63208008 31.68920898 C2.57703783 36.82207345 2.49077804 41.953573 2.38793945 47.08569336 C3.14937256 47.06998291 3.91080566 47.05427246 4.6953125 47.03808594 C8.15527885 46.97560883 11.61512635 46.93666164 15.07543945 46.89819336 C16.27362305 46.87305664 17.47180664 46.84791992 18.70629883 46.82202148 C19.86323242 46.81235352 21.02016602 46.80268555 22.2121582 46.79272461 C23.27523193 46.77701416 24.33830566 46.76130371 25.43359375 46.74511719 C29.76651488 47.24461516 32.34869741 49.04645131 35.38793945 52.08569336 C35.45043945 55.02319336 35.45043945 55.02319336 34.38793945 58.08569336 C27.38793945 61.08569336 27.38793945 61.08569336 2.38793945 61.08569336 C2.38793945 80.55569336 2.38793945 100.02569336 2.38793945 120.08569336 C7.33793945 119.09569336 12.28793945 118.10569336 17.38793945 117.08569336 C28.0678381 117.32302444 28.0678381 117.32302444 32.38793945 121.08569336 C33.51293945 122.96069336 33.51293945 122.96069336 33.38793945 125.08569336 C29.65986123 130.45173729 25.29639945 131.12784945 19.06176758 132.30249023 C17.9112793 132.49907227 16.76079102 132.6956543 15.57543945 132.89819336 C14.40561523 133.11411133 13.23579102 133.3300293 12.03051758 133.55249023 C9.15235919 134.08113157 6.27217403 134.59148016 3.38793945 135.08569336 C3.37580917 136.11021103 3.37580917 136.11021103 3.36343384 137.15542603 C3.28484038 143.65574551 3.19736708 150.15588146 3.10041237 156.65595436 C3.05089069 159.99611613 3.00554601 163.33620938 2.96606445 166.67651367 C2.9198964 170.53443148 2.8619918 174.39203105 2.80200195 178.24975586 C2.78467514 180.011577 2.78467514 180.011577 2.76699829 181.80899048 C2.36140268 205.08212015 -3.35368192 223.28470496 -19.96362305 239.87084961 C-25.0385401 244.11491741 -29.50889012 244.50854026 -35.94018555 244.42163086 C-39.79977252 243.93636115 -41.70254345 242.60203247 -44.61206055 240.08569336 C-44.32956129 236.50052102 -44.06001437 234.57992701 -41.6081543 231.87475586 C-40.34165039 230.80354492 -40.34165039 230.80354492 -39.04956055 229.71069336 C-34.59551477 225.49947934 -31.80157286 221.39644182 -29.11206055 215.89819336 C-28.7864917 215.23319824 -28.46092285 214.56820312 -28.12548828 213.88305664 C-22.6986359 202.28598691 -22.49458501 190.45810578 -22.2956543 177.85522461 C-22.2748732 176.73879074 -22.2540921 175.62235687 -22.23268127 174.47209167 C-22.16792072 170.94751424 -22.10864681 167.42287001 -22.04956055 163.89819336 C-22.00630522 161.49128574 -21.96268885 159.08438458 -21.91870117 156.67749023 C-21.81231605 150.8136261 -21.71042101 144.9496973 -21.61206055 139.08569336 C-23.5127832 139.51881836 -23.5127832 139.51881836 -25.4519043 139.96069336 C-27.15101398 140.33618721 -28.85023902 140.71115935 -30.54956055 141.08569336 C-31.38036133 141.27647461 -32.21116211 141.46725586 -33.06713867 141.66381836 C-39.88923611 143.15034543 -46.3669971 144.12874947 -53.11206055 141.96069336 C-55.61206055 140.08569336 -55.61206055 140.08569336 -56.48706055 136.89819336 C-56.52831055 135.97006836 -56.56956055 135.04194336 -56.61206055 134.08569336 C-53.00571107 130.84557811 -50.33488742 129.46580167 -45.5769043 128.60131836 C-44.43801758 128.38862305 -43.29913086 128.17592773 -42.12573242 127.95678711 C-40.9455957 127.75182617 -39.76545898 127.54686523 -38.54956055 127.33569336 C-37.36555664 127.11526367 -36.18155273 126.89483398 -34.96166992 126.66772461 C-30.43159318 125.84127435 -26.22665135 125.08569336 -21.61206055 125.08569336 C-21.61206055 103.96569336 -21.61206055 82.84569336 -21.61206055 61.08569336 C-29.53206055 61.08569336 -37.45206055 61.08569336 -45.61206055 61.08569336 C-53.61206055 59.08569336 -53.61206055 59.08569336 -55.61206055 57.77319336 C-57.05184325 55.34356004 -57.09667379 53.85491188 -56.61206055 51.08569336 C-52.55214726 47.16577708 -48.63050967 46.96343793 -43.1940918 46.98803711 C-41.94047852 46.99125977 -40.68686523 46.99448242 -39.39526367 46.99780273 C-37.42976562 47.01037109 -37.42976562 47.01037109 -35.42456055 47.02319336 C-34.08927574 47.02821019 -32.75398914 47.03277277 -31.41870117 47.03686523 C-28.14977582 47.04866641 -24.88094064 47.06513039 -21.61206055 47.08569336 C-21.62871513 46.23124886 -21.62871513 46.23124886 -21.64570618 45.35954285 C-21.75619395 39.43891049 -21.83168304 33.51857013 -21.88671875 27.59716797 C-21.91188684 25.38643503 -21.94602435 23.17578548 -21.98925781 20.96533203 C-22.04980734 17.79039969 -22.07824725 14.61656575 -22.1003418 11.44116211 C-22.12614822 10.45045212 -22.15195465 9.45974213 -22.17854309 8.43901062 C-22.17958857 5.89011282 -22.14458451 3.57835953 -21.61206055 1.08569336 C-15.82841715 -3.99722462 -6.2131066 -4.55341329 0 0 Z " fill="#487CFF" transform="translate(662.612060546875,11.914306640625)"/>
<path d="M0 0 C0.73871415 -0.00297112 1.47742829 -0.00594224 2.23852772 -0.0090034 C4.7210365 -0.01769488 7.20349709 -0.01919905 9.6860199 -0.02069092 C11.46331892 -0.02531893 13.24061695 -0.03034357 15.01791382 -0.03573608 C19.85296378 -0.04886736 24.68799984 -0.05530695 29.52306485 -0.05974674 C32.54520368 -0.06267747 35.56733871 -0.06678238 38.58947563 -0.07125092 C48.04869557 -0.08493036 57.50790682 -0.09459373 66.96713597 -0.09845281 C77.87870832 -0.10292893 88.79015512 -0.12045426 99.7016893 -0.1494534 C108.13920616 -0.17109691 116.57668778 -0.18115858 125.0142321 -0.18249393 C130.05148419 -0.18354043 135.08861833 -0.18941477 140.12584114 -0.20731354 C144.86923807 -0.22383941 149.61242897 -0.22592783 154.3558445 -0.21717453 C156.09160159 -0.21640646 157.82736997 -0.2207164 159.56309891 -0.23063278 C172.88135805 -0.3022234 183.79899702 0.96698543 194.79710388 9.14044189 C197.38427057 11.84794191 198.65525834 13.48454936 198.97679138 17.23809814 C198.39782971 28.48925329 189.35920299 37.01720481 181.51976013 44.23809814 C174.51190184 50.1032441 166.72404283 54.65109448 158.79710388 59.14044189 C158.18173767 59.49138916 157.56637146 59.84233643 156.93235779 60.20391846 C132.30417408 74.14044189 132.30417408 74.14044189 124.79710388 74.14044189 C124.79710388 74.80044189 124.79710388 75.46044189 124.79710388 76.14044189 C126.09647888 76.24356689 127.39585388 76.34669189 128.73460388 76.45294189 C134.56981984 77.11666314 140.43038242 78.1118235 144.98460388 82.01544189 C145.79710388 84.14044189 145.79710388 84.14044189 145.23460388 86.76544189 C143.56244508 89.52813904 142.77371919 90.01384832 139.79710388 91.14044189 C129.81045154 92.20969799 120.57917606 90.3699626 110.98460388 87.76544189 C110.32023315 87.58915253 109.65586243 87.41286316 108.97135925 87.23123169 C85.54307225 80.98924622 51.90758402 70.92524206 35.79710388 51.14044189 C35.85960388 48.64044189 35.85960388 48.64044189 36.79710388 46.14044189 C40.62688124 42.56598303 44.434888 41.76694758 49.63304138 41.87091064 C55.6018469 42.61431783 60.13552406 46.35070714 64.79710388 49.89044189 C71.10982826 54.59215201 77.81446636 57.92179736 84.92796326 61.21221924 C86.79710388 62.14044189 86.79710388 62.14044189 89.75022888 64.03497314 C93.51661579 66.24638032 96.52852695 67.55090226 100.95335388 66.75030518 C107.5141431 64.90373436 113.63435994 62.01029298 119.79710388 59.14044189 C120.84849548 58.66735596 121.89988708 58.19427002 122.98313904 57.70684814 C141.50068291 49.36994528 162.05361445 39.85085297 173.18772888 21.92950439 C173.9123804 20.12386806 173.9123804 20.12386806 173.78147888 18.03887939 C172.90827836 15.86070196 172.90827836 15.86070196 170.19143009 15.0379324 C166.48540699 14.05802642 163.33545106 13.8870832 159.50350952 13.88215637 C158.79137269 13.87848067 158.07923586 13.87480496 157.34551913 13.87101787 C154.97115249 13.86107733 152.59702186 13.8651807 150.22264099 13.86920166 C148.51560213 13.86481244 146.80856542 13.85950957 145.10153198 13.85336304 C141.43149443 13.841879 137.7615145 13.83640481 134.09145927 13.83548164 C128.28849929 13.83353902 122.48565839 13.81547636 116.68273926 13.79472351 C102.27202115 13.7455662 87.86127082 13.71463256 73.45048523 13.69342041 C62.24535268 13.67690367 51.04032248 13.65411596 39.83525854 13.61039966 C34.06619974 13.58860833 28.29733531 13.58056678 22.52823818 13.5827924 C18.94101223 13.5811268 15.35391349 13.56708572 11.76673317 13.54957962 C10.10306599 13.54397623 8.43937248 13.54349846 6.77570343 13.54851723 C4.504749 13.55465003 2.234599 13.54244346 -0.0362854 13.52571106 C-1.94238634 13.52269407 -1.94238634 13.52269407 -3.88699436 13.51961613 C-7.75581697 13.07721525 -10.43013171 11.9132063 -13.20289612 9.14044189 C-13.50422729 6.27779573 -13.64931644 4.73566899 -11.89039612 2.39044189 C-8.22522163 -0.32450217 -4.34373994 -0.00543432 0 0 Z " fill="#487CFF" transform="translate(348.20289611816406,162.85955810546875)"/>
<path d="M0 0 C2.40065765 2.3470974 2.40065765 2.3470974 3.02427673 5.20525742 C3.02356422 6.31903574 3.02285172 7.43281406 3.02211761 8.58034325 C3.03332642 9.86138939 3.04453522 11.14243553 3.05608368 12.46230125 C3.04317211 13.88012192 3.02975797 15.29793809 3.01589203 16.71574974 C3.01939368 18.21085299 3.02505275 19.70595251 3.03270721 21.20104027 C3.04697123 25.26384407 3.02987072 29.32597218 3.00642204 33.38871145 C2.98629876 37.65027888 2.99219401 41.91181859 2.99452972 46.17342186 C2.99447611 53.34096443 2.97470788 60.50824382 2.94264984 67.67571068 C2.90589574 75.93259658 2.89695459 84.18913594 2.90394735 92.44609296 C2.91028488 100.4102894 2.89942927 108.37436835 2.87998199 116.33854103 C2.87186024 119.71536639 2.86908882 123.09213124 2.87067413 126.46896553 C2.87156232 130.46309306 2.85708968 134.45689865 2.8314476 138.45094109 C2.82436744 139.90602492 2.82216209 141.36114323 2.82556534 142.81624031 C2.87080462 166.74799738 -4.94967296 187.2770925 -20.59934235 205.3470974 C-21.44625641 206.32807396 -22.29317047 207.30905052 -23.1657486 208.31975365 C-29.10861787 215.06863527 -35.41676981 220.90209416 -42.59934235 226.3470974 C-43.18796051 226.79472435 -43.77657867 227.2423513 -44.38303375 227.70354271 C-67.92263004 245.52681381 -67.92263004 245.52681381 -81.59934235 244.3470974 C-84.14813157 243.17465435 -85.66231613 242.28412362 -87.59934235 240.3470974 C-88.03684235 238.0970974 -88.03684235 238.0970974 -87.59934235 235.3470974 C-83.65823541 231.71324317 -79.40871476 228.84388201 -74.84934235 226.0345974 C-68.75023205 222.18692276 -63.08885934 218.03681722 -57.59934235 213.3470974 C-56.7794986 212.66131615 -55.95965485 211.9755349 -55.11496735 211.2689724 C-38.14786876 196.62035933 -25.76750296 177.79283223 -22.59934235 155.3470974 C-22.3158679 150.30342237 -22.31826976 145.26450722 -22.32810211 140.21452904 C-22.32370702 138.71054874 -22.31840204 137.20657086 -22.31226349 135.70259666 C-22.30082987 132.48388815 -22.29530905 129.26524489 -22.2943821 126.04651642 C-22.29243153 120.95788337 -22.27432848 115.86938463 -22.25362396 110.78079796 C-22.20458802 98.15230054 -22.17349626 85.52376722 -22.15232086 72.8951931 C-22.1358094 63.05829761 -22.11306255 53.22151883 -22.06930012 43.38470167 C-22.04750164 38.32425003 -22.03946766 33.26402008 -22.04169285 28.20352471 C-22.04002985 25.06325291 -22.02600636 21.92312704 -22.00848007 18.78290749 C-22.0028675 17.32480553 -22.00240731 15.86667349 -22.00741768 14.40856934 C-22.01352982 12.42205487 -21.99961897 10.43550855 -21.98461151 8.44904137 C-21.98159452 6.7802598 -21.98159452 6.7802598 -21.97851658 5.07776546 C-21.59934235 2.3470974 -21.59934235 2.3470974 -20.27057552 0.5438509 C-14.3464032 -3.69839014 -6.05328545 -3.84923952 0 0 Z " fill="#487CFF" transform="translate(88.5993423461914,11.652902603149414)"/>
<path d="M0 0 C0.87793213 0.36407959 1.75586426 0.72815918 2.66040039 1.10327148 C6.5198467 2.75434818 10.36861809 4.42912122 14.21533203 6.10961914 C44.1013827 19.05871669 75.25614723 27.57638153 107.11328125 34.12890625 C107.7718663 34.26509872 108.43045135 34.4012912 109.10899353 34.54161072 C112.13343311 35.16317887 115.15984009 35.76205695 118.19506836 36.32885742 C119.23928955 36.53486572 120.28351074 36.74087402 121.359375 36.953125 C122.70563965 37.20328369 122.70563965 37.20328369 124.07910156 37.45849609 C127.04215064 38.50773272 128.47910164 39.89774522 130.46875 42.3046875 C131.03125 44.8671875 131.03125 44.8671875 130.46875 47.3046875 C125.45516812 51.09874946 120.60073142 51.82711768 114.46875 51.3046875 C109.34816222 50.45302891 104.28658052 49.35823627 99.21875 48.2421875 C98.49022827 48.08374359 97.76170654 47.92529968 97.0111084 47.76205444 C91.8247991 46.63373363 86.64573191 45.47496426 81.46875 44.3046875 C80.25445313 44.03237305 79.04015625 43.76005859 77.7890625 43.47949219 C51.41429632 37.48179793 24.26165995 29.95693271 -0.08886719 17.98706055 C-4.43768586 15.97469628 -7.33278042 14.79285148 -12.01171875 16.2890625 C-13.52966641 16.93468201 -15.03606894 17.60796428 -16.53125 18.3046875 C-18.21728637 18.9718757 -19.9062376 19.63173318 -21.59765625 20.28515625 C-22.48090576 20.64013184 -23.36415527 20.99510742 -24.27416992 21.36083984 C-55.84056012 34.02675483 -88.49863489 42.37320545 -121.71875 49.4921875 C-122.61787109 49.6883667 -123.51699219 49.8845459 -124.44335938 50.08666992 C-130.73463402 51.36956527 -137.49061055 52.72796554 -143.46875 49.9296875 C-145.53125 48.3046875 -145.53125 48.3046875 -147.53125 46.3046875 C-147.59375 43.3671875 -147.59375 43.3671875 -146.53125 40.3046875 C-140.83812872 37.23441342 -134.90897896 36.25890673 -128.59375 35.1171875 C-90.72190791 27.88056587 -53.93668071 16.88730663 -18.84765625 0.80078125 C-12.17350909 -2.2100531 -6.76675982 -2.82326463 0 0 Z " fill="#487CFF" transform="translate(449.53125,105.6953125)"/>
<path d="M0 0 C1.65515625 0.00193359 1.65515625 0.00193359 3.34375 0.00390625 C6.79470998 0.47798615 8.71775338 1.37601654 11.5 3.4375 C12.82227304 6.08204608 12.63498296 8.07249766 12.64717102 11.03523254 C12.65432632 12.22556595 12.66148163 13.41589935 12.66885376 14.64230347 C12.67288712 16.61144211 12.67288712 16.61144211 12.67700195 18.62036133 C12.6832658 20.01154246 12.68991253 21.40272192 12.69691467 22.79389954 C12.71433137 26.57911424 12.72487821 30.36431631 12.7331202 34.14956117 C12.73826887 36.5138453 12.74434465 38.87812549 12.75063133 41.24240685 C12.76968515 48.63795424 12.78391597 56.03349163 12.7922433 63.42905885 C12.80201795 71.96927223 12.82834239 80.50922657 12.86874419 89.04934865 C12.89889187 95.64814088 12.91371088 102.2468588 12.91702431 108.84571856 C12.91937633 112.78798226 12.92835595 116.7299693 12.95348549 120.67215919 C12.976748 124.38142231 12.98100711 128.09022625 12.97072411 131.79954338 C12.96999185 133.80843914 12.98909586 135.81731148 13.00878906 137.82611084 C13.00184525 139.02490372 12.99490143 140.22369659 12.98774719 141.45881653 C12.99013555 142.49876676 12.9925239 143.53871698 12.99498463 144.61018085 C12.36710466 148.19658932 11.03406427 149.8660577 8.5 152.4375 C2.93183863 154.29355379 -2.63159775 154.1914167 -8.0625 152 C-10.5 150.4375 -10.5 150.4375 -11.5 149.4375 C-11.60745102 147.57385711 -11.64411624 145.70611355 -11.65390015 143.83940125 C-11.66250061 142.62375488 -11.67110107 141.40810852 -11.67996216 140.15562439 C-11.68439777 138.79605145 -11.6886961 137.43647806 -11.69287109 136.0769043 C-11.70076883 134.65469155 -11.70903757 133.23248081 -11.71765137 131.81027222 C-11.7439104 127.12744064 -11.75918323 122.44459994 -11.7734375 117.76171875 C-11.77879566 116.15180772 -11.78417316 114.54189676 -11.78956985 112.93198586 C-11.81120462 106.23655187 -11.82994233 99.54112033 -11.84119225 92.84566021 C-11.85743702 83.23946415 -11.89062035 73.63367226 -11.94759309 64.0276286 C-11.986256 57.27940632 -12.0058206 50.5312923 -12.01111281 43.78296214 C-12.01477146 39.74954593 -12.02684611 35.7165604 -12.05921555 31.68326378 C-12.08923241 27.88859162 -12.09563143 24.09461211 -12.08383179 20.29984665 C-12.08361051 18.90663767 -12.09196079 17.51339716 -12.10948563 16.12029839 C-12.13210031 14.21918326 -12.12092146 12.31775542 -12.10800171 10.41654968 C-12.11131186 9.35225581 -12.114622 8.28796194 -12.11803246 7.19141674 C-11.5 4.4375 -11.5 4.4375 -9.15926552 2.09481525 C-5.87948551 0.05078114 -3.84077387 -0.06730328 0 0 Z " fill="#487CFF" transform="translate(23.5,40.5625)"/>
<path d="M0 0 C4.66786735 2.84269306 4.66786735 2.84269306 5.62890625 6.19140625 C5.20726557 21.24645861 -2.72197858 33.39534534 -13.17382812 43.71704102 C-23.4775013 53.40929092 -39.20499708 63.25551704 -53.625 64.25 C-57.77039528 63.94293368 -60.48537531 63.06023728 -63.875 60.6875 C-65 59 -65 59 -65.0625 56.5625 C-62.9495794 51.46663266 -57.07267203 49.46120042 -52.29101562 47.21166992 C-38.37358998 40.65416518 -27.29124203 32.13741666 -21.5625 17.3125 C-20.46132292 14.00424267 -19.83719866 11.03484166 -19.625 7.5625 C-19 4 -19 4 -16.75 1.5 C-11.81985194 -1.18699067 -5.38142534 -0.91598729 0 0 Z " fill="#487CFF" transform="translate(975,180)"/>
<path d="M0 0 C3.75249171 2.11842795 4.81027133 3.39897142 6.1171875 7.5390625 C6.38193318 8.89873373 6.63403527 10.26091345 6.875 11.625 C8.95146323 21.41309067 13.55971254 28.26831135 21 35 C21.54140625 35.58007812 22.0828125 36.16015625 22.640625 36.7578125 C28.4288695 42.56884537 35.02593653 45.6731801 42.43603516 48.94238281 C43.23831543 49.2978418 44.0405957 49.65330078 44.8671875 50.01953125 C45.59019043 50.32995361 46.31319336 50.64037598 47.05810547 50.96020508 C49.14601734 52.07818555 50.48913237 53.18110546 52 55 C52.5 57.5 52.5 57.5 52 60 C48.5438604 63.22573029 44.36434171 63.80657723 39.79296875 64.1171875 C23.44534631 63.43127327 6.53456629 50.19506879 -4.34375 38.90625 C-10.58797409 31.71950151 -17.02473622 22.75263784 -18 13 C-18.08636719 12.28714844 -18.17273437 11.57429687 -18.26171875 10.83984375 C-18.43775489 8.43401654 -18.43824812 6.37273729 -18 4 C-13.43600046 -1.19788836 -6.5405241 -1.1971888 0 0 Z " fill="#487CFF" transform="translate(1136,180)"/>
<path d="M0 0 C0.89805862 -0.00960754 1.79611725 -0.01921509 2.72138977 -0.02911377 C3.6849791 -0.03336365 4.64856842 -0.03761353 5.64135742 -0.04199219 C6.64011398 -0.04769226 7.63887054 -0.05339233 8.66789246 -0.05926514 C10.78021183 -0.06870447 12.89254587 -0.07524488 15.00488281 -0.07910156 C18.22446596 -0.08879983 21.44340859 -0.11983069 24.6628418 -0.15136719 C26.71817656 -0.15789845 28.77351588 -0.16314844 30.82885742 -0.16699219 C31.78637405 -0.17933899 32.74389069 -0.19168579 33.73042297 -0.20440674 C40.21678271 -0.18295673 45.62775887 0.35456551 50.43432617 5.16113281 C50.49682617 8.09863281 50.49682617 8.09863281 49.43432617 11.16113281 C43.60739822 14.51367919 38.32768864 14.60096638 31.71557617 14.55957031 C30.19051453 14.56387558 30.19051453 14.56387558 28.63464355 14.56826782 C26.49315837 14.57030189 24.35165433 14.5648182 22.21020508 14.55224609 C18.94464309 14.53618356 15.68031871 14.55211769 12.41479492 14.57128906 C10.32755262 14.56930651 8.24031109 14.5654626 6.15307617 14.55957031 C5.18309692 14.56564301 4.21311768 14.5717157 3.21374512 14.57797241 C-2.3153854 14.52100672 -8.37371481 14.35309183 -12.56567383 10.16113281 C-12.87817383 7.28613281 -12.87817383 7.28613281 -12.56567383 4.16113281 C-9.00398433 0.47224012 -4.92973917 0.04276008 0 0 Z " fill="#487CFF" transform="translate(364.565673828125,78.8388671875)"/>
<path d="M0 0 C0.89805862 -0.00960754 1.79611725 -0.01921509 2.72138977 -0.02911377 C3.6849791 -0.03336365 4.64856842 -0.03761353 5.64135742 -0.04199219 C6.64011398 -0.04769226 7.63887054 -0.05339233 8.66789246 -0.05926514 C10.78021183 -0.06870447 12.89254587 -0.07524488 15.00488281 -0.07910156 C18.22446596 -0.08879983 21.44340859 -0.11983069 24.6628418 -0.15136719 C26.71817656 -0.15789845 28.77351588 -0.16314844 30.82885742 -0.16699219 C31.78637405 -0.17933899 32.74389069 -0.19168579 33.73042297 -0.20440674 C39.2499214 -0.18615408 45.24830653 -0.02488682 49.43432617 4.16113281 C49.74682617 7.03613281 49.74682617 7.03613281 49.43432617 10.16113281 C46.49863617 13.20166889 43.38939479 14.03519621 39.2540741 14.30157471 C38.07329033 14.31181671 38.07329033 14.31181671 36.86865234 14.32226562 C35.97059372 14.33187317 35.0725351 14.34148071 34.14726257 14.35137939 C32.70187859 14.35775421 32.70187859 14.35775421 31.22729492 14.36425781 C30.22853836 14.36995789 29.2297818 14.37565796 28.20075989 14.38153076 C26.08844051 14.3909701 23.97610648 14.39751051 21.86376953 14.40136719 C18.64418639 14.41106546 15.42524376 14.44209631 12.20581055 14.47363281 C10.15047578 14.48016408 8.09513647 14.48541406 6.03979492 14.48925781 C5.08227829 14.50160461 4.12476166 14.51395142 3.13822937 14.52667236 C-2.52285383 14.5079515 -6.59481218 13.9589787 -11.56567383 11.16113281 C-13.00317383 8.47363281 -13.00317383 8.47363281 -13.56567383 6.16113281 C-9.05001558 1.26916971 -6.50987741 0.05646605 0 0 Z " fill="#487CFF" transform="translate(480.565673828125,78.8388671875)"/>
<path d="M0 0 C1.13288956 -0.00524185 2.26577911 -0.0104837 3.43299866 -0.0158844 C5.82601096 -0.02230053 8.21905482 -0.02097293 10.61206055 -0.01245117 C14.26863921 -0.00394467 17.92365386 -0.03270521 21.58007812 -0.06445312 C23.90755162 -0.06606536 26.23502787 -0.06548719 28.5625 -0.0625 C29.65328354 -0.07373398 30.74406708 -0.08496796 31.86790466 -0.09654236 C37.9991343 -0.04040037 41.65874527 0.35463064 46.34765625 4.43359375 C46.22265625 7.24609375 46.22265625 7.24609375 45.34765625 10.43359375 C39.96052055 14.27922471 34.34477139 13.86883022 28 13.83203125 C26.36581871 13.83633652 26.36581871 13.83633652 24.69862366 13.84072876 C22.40153482 13.8427654 20.10442847 13.83726365 17.80737305 13.82470703 C14.29371375 13.8086329 10.78120203 13.82457808 7.26757812 13.84375 C5.03254955 13.8417678 2.79752169 13.83792461 0.5625 13.83203125 C-0.48656021 13.83810394 -1.53562042 13.84417664 -2.61647034 13.85043335 C-8.29134768 13.79574598 -12.42692336 13.65901414 -16.65234375 9.43359375 C-17.02734375 6.55859375 -17.02734375 6.55859375 -16.65234375 3.43359375 C-12.03727213 -0.85510262 -5.90264781 -0.01585644 0 0 Z " fill="#487CFF" transform="translate(368.65234375,59.56640625)"/>
<path d="M0 0 C1.54168602 -0.00934319 1.54168602 -0.00934319 3.11451721 -0.01887512 C4.21359909 -0.00966537 5.31268097 -0.00045563 6.44506836 0.0090332 C8.15151772 0.00828545 8.15151772 0.00828545 9.8924408 0.00752258 C12.29387156 0.00986008 14.69530491 0.01956939 17.09667969 0.03613281 C20.7748806 0.05975004 24.45235763 0.05668784 28.13061523 0.05004883 C30.46460394 0.05562494 32.79858958 0.0627344 35.13256836 0.0715332 C36.23367447 0.0706218 37.33478058 0.06971039 38.46925354 0.06877136 C39.49389206 0.07830338 40.51853058 0.08783539 41.57421875 0.09765625 C42.47402969 0.10226364 43.37384064 0.10687103 44.30091858 0.11161804 C46.90259519 0.39171285 48.5224317 0.97221121 50.72241211 2.37231445 C52.07680879 5.08110781 51.78742662 7.38164713 51.72241211 10.37231445 C45.58875259 13.60556963 40.35659062 13.81159816 33.49584961 13.77075195 C32.43000641 13.77362213 31.36416321 13.77649231 30.26602173 13.77944946 C28.02198757 13.7814838 25.77793542 13.77599826 23.53393555 13.76342773 C20.10156683 13.74733393 16.67036995 13.76331487 13.23803711 13.7824707 C11.05313868 13.78048878 8.86824098 13.77664617 6.68334961 13.77075195 C5.14727554 13.77986099 5.14727554 13.77986099 3.58016968 13.78915405 C-2.86853855 13.72550144 -6.58753783 13.06236451 -11.27758789 8.37231445 C-11.21508789 5.93481445 -11.21508789 5.93481445 -10.27758789 3.37231445 C-6.78796764 0.80938604 -4.29893715 -0.00300448 0 0 Z " fill="#487CFF" transform="translate(478.277587890625,59.627685546875)"/>
<path d="M0 0 C2.31633933 1.34580609 3.8424519 2.84069444 5.68359375 4.78125 C8.81371442 7.77940943 12.31045539 10.02060262 15.9375 12.375 C22.9411387 16.9411387 22.9411387 16.9411387 24 18 C24.30133118 20.86264617 24.44642032 22.4047729 22.6875 24.75 C17.95876273 28.25276835 11.56716475 27.57991299 6 27 C-3.70547597 24.03925212 -13.20482236 16.20199155 -19 8 C-19.0625 5.375 -19.0625 5.375 -18 3 C-12.4415631 -1.11884173 -6.65514161 -1.10783263 0 0 Z " fill="#487CFF" transform="translate(444,132)"/>
</svg>
